:SAMPLES-PER-SECOND 30
:FRAME-RANGE 1-3535
:FULLY-SPECIFIED
:DEGREES
332
root  9.62874 38.0542 14.7539 -177.355 47.929 171.852
RightUpLeg  -5.77545 -6.56129 -2.88069
RightLeg  54.0119 2.95607 3.9773
RightFoot  -2.37545 -1.06932 13.3748
RightToes  5.38503e-012 1.26228e-014 -6.01869e-014
Spine  1.46509 5.19685 0.946169
Spine1  9.11466 7.71198 -9.29039
HEad  -15.3958 30.4097 -18.8343
LeftShoulder1  0.918232 0.174555 -23.3056
LeftArm  30.6685 11.2137 -47.1773
LeftForeArm  13.2049 -20.4739 -5.72532
LeftHand  -0.132092 4.22555 11.9169
RightShoulder  2.28044 5.39491 19.8894
RightArm  -21.48 17.4047 59.45
RightForeArm  74.3825 -5.1664 3.73308
RightHand  0.541725 -8.19453 -22.6435
LeftUpLeg  -31.7641 -4.34032 -8.61792
LeftLeg  20.9773 8.62518 3.96813
LeftFoot  -0.217723 0.0463002 -0.462095
LeftToes  8.9788e-011 3.29689e-010 2.1201e-011
333
root  10.5254 38.0652 13.9902 -178.836 47.829 170.943
RightUpLeg  -10.2593 -5.82639 -5.02916
RightLeg  62.6702 2.50037 4.71891
RightFoot  -1.58268 -1.16967 13.5164
RightToes  5.38503e-012 1.26228e-014 -6.01869e-014
Spine  2.10391 4.47132 -1.04936
Spine1  8.77133 6.35268 -7.79359
HEad  -13.8528 31.5051 -18.291
LeftShoulder1  1.02606 -0.277823 -22.5749
LeftArm  32.8199 7.0517 -48.8219
LeftForeArm  13.3513 -21.202 -5.22672
LeftHand  -0.1371 4.21146 12.3033
RightShoulder  2.20322 4.59785 21.6652
RightArm  -19.884 12.529 56.3393
RightForeArm  75.7263 -5.42048 5.60992
RightHand  0.566322 -8.39672 -22.1107
LeftUpLeg  -29.9178 -4.88833 -9.31789
LeftLeg  23.1714 8.85511 4.47629
LeftFoot  -2.94766 0.0151416 0.0358496
LeftToes  8.9788e-011 3.29689e-010 2.1201e-011
334
root  11.4861 38.1607 13.2241 179.875 48.4375 170.152
RightUpLeg  -14.8243 -4.14307 -6.86989
RightLeg  68.4588 1.31995 2.9821
RightFoot  -3.84509 -0.800343 11.7766
RightToes  5.38503e-012 1.26228e-014 -6.01869e-014
Spine  2.29339 3.84374 -2.7939
Spine1  8.41187 5.21509 -6.62644
HEad  -12.7539 33.1692 -17.6691
LeftShoulder1  1.08247 -0.629955 -21.3776
LeftArm  33.0598 2.92799 -50.3672
LeftForeArm  13.1012 -20.9909 -5.38387
LeftHand  -0.185378 3.77336 12.5581
RightShoulder  2.13342 3.94449 23.3029
RightArm  -19.3121 7.48779 53.1923
RightForeArm  75.2807 -5.604 6.62416
RightHand  0.568457 -8.41644 -22.0531
LeftUpLeg  -27.5424 -4.42844 -9.89911
LeftLeg  24.2226 8.97103 4.73866
LeftFoot  -5.46068 0.0299822 0.0562205
LeftToes  8.9788e-011 3.29689e-010 2.1201e-011
335
root  12.5321 38.3586 12.4274 178.837 49.2878 169.915
RightUpLeg  -19.0841 -2.15389 -8.29633
RightLeg  70.9214 0.480626 0.716662
RightFoot  -3.35387 -0.683328 9.4386
RightToes  5.38503e-012 1.26228e-014 -6.01869e-014
Spine  2.36836 3.10033 -4.0102
Spine1  7.77765 4.04785 -5.59505
HEad  -11.6981 35.5441 -17.3818
LeftShoulder1  1.15691 -1.02528 -20.5343
LeftArm  32.2398 -1.30338 -50.8509
LeftForeArm  13.2531 -19.8004 -6.2841
LeftHand  -0.182072 3.77002 12.2822
RightShoulder  2.00159 3.10349 25.1888
RightArm  -19.6968 2.80432 49.7274
RightForeArm  73.9998 -5.68585 6.80507
RightHand  0.595252 -8.52069 -22.286
LeftUpLeg  -24.24 -3.0161 -10.102
LeftLeg  23.9914 8.67989 4.5175
LeftFoot  -7.68457 0.046517 -0.00995022
LeftToes  8.9788e-011 3.29689e-010 2.1201e-011
336
root  13.6506 38.6036 11.5822 178.141 50.0355 170.222
RightUpLeg  -22.5341 -0.515651 -9.40463
RightLeg  70.1936 -0.0199075 -0.866483
RightFoot  -2.98451 -0.622255 8.22436
RightToes  5.38503e-012 1.26228e-014 -6.01869e-014
Spine  1.8587 2.18385 -4.60006
Spine1  7.70336 2.80219 -4.60617
HEad  -10.704 38.1188 -17.6167
LeftShoulder1  1.29882 -1.69587 -19.7399
LeftArm  28.6037 -5.5212 -50.808
LeftForeArm  16.3688 -17.2884 -8.21015
LeftHand  -0.183519 3.75987 12.3128
RightShoulder  1.71728 2.02853 26.1665
RightArm  -21.3593 -2.00803 47.2756
RightForeArm  70.6684 -5.70133 6.07848
RightHand  0.535184 -8.24863 -22.0084
LeftUpLeg  -20.34 -1.62362 -9.78423
LeftLeg  22.9631 8.35471 4.02787
LeftFoot  -9.3793 0.0625595 -0.36341
LeftToes  8.9788e-011 3.29689e-010 2.1201e-011
337
root  14.7915 38.7269 10.7574 177.272 50.5285 170.382
RightUpLeg  -25.2327 -0.218775 -10.6996
RightLeg  67.4129 -0.337193 -1.57678
RightFoot  -5.41781 -0.422537 7.44217
RightToes  5.38503e-012 1.26228e-014 -6.01869e-014
Spine  1.67536 1.06979 -5.49623
Spine1  7.33857 1.33293 -3.59495
HEad  -10.0186 40.6437 -17.9819
LeftShoulder1  1.45473 -2.58959 -18.3516
LeftArm  24.2672 -8.82331 -50.4038
LeftForeArm  19.6924 -14.7009 -9.98893
LeftHand  -0.159029 3.96734 12.0339
RightShoulder  1.46408 1.2098 26.3731
RightArm  -22.3821 -6.94893 45.5193
RightForeArm  65.5149 -5.83712 5.70844
RightHand  0.426194 -7.76154 -21.2902
LeftUpLeg  -16.5576 0.283687 -9.39465
LeftLeg  22.3031 7.3424 3.07532
LeftFoot  -11.3477 0.0681043 -0.272187
LeftToes  8.9788e-011 3.29689e-010 2.1201e-011
338
root  15.955 38.7815 9.94952 176.755 51.2482 170.78
RightUpLeg  -27.7575 -0.646254 -11.5504
RightLeg  62.6611 -0.650595 -1.9072
RightFoot  -6.67327 -0.354646 7.57432
RightToes  5.38503e-012 1.26228e-014 -6.01869e-014
Spine  1.71551 0.308116 -6.32001
Spine1  6.77174 0.191875 -2.08294
HEad  -10.0435 42.5539 -18.8671
LeftShoulder1  1.54021 -3.13954 -17.5098
LeftArm  20.8404 -12.3524 -49.6356
LeftForeArm  22.3248 -12.2635 -11.4204
LeftHand  -0.144985 4.05622 11.5534
RightShoulder  1.21806 0.486767 26.0122
RightArm  -22.1892 -12.5317 43.6015
RightForeArm  59.8008 -5.92032 5.87485
RightHand  0.292567 -7.14016 -20.1362
LeftUpLeg  -12.9912 2.16428 -8.51968
LeftLeg  21.7563 6.54874 2.0182
LeftFoot  -13.4557 0.0795525 -0.0644157
LeftToes  8.9788e-011 3.29689e-010 2.1201e-011
339
root  17.1652 38.7866 9.12616 176.688 52.6391 171.288
RightUpLeg  -30.0259 -1.2812 -11.8623
RightLeg  55.7261 -0.740044 -1.57522
RightFoot  -6.54704 -0.362296 7.5776
RightToes  5.38503e-012 1.26228e-014 -6.01869e-014
Spine  0.870166 -0.19326 -5.97484
Spine1  6.9744 -0.212104 -1.8695
HEad  -10.5069 43.7925 -19.632
LeftShoulder1  1.54555 -3.42672 -16.4889
LeftArm  17.245 -15.6477 -48.8636
LeftForeArm  25.344 -10.1613 -12.3059
LeftHand  -0.134456 4.08839 10.8386
RightShoulder  1.02258 -0.0981618 25.7177
RightArm  -22.2668 -17.0233 42.0586
RightForeArm  55.7328 -2.64457 6.32914
RightHand  0.161381 -6.41871 -19.5224
LeftUpLeg  -9.6071 3.15834 -7.54569
LeftLeg  20.9631 7.04405 1.69487
LeftFoot  -15.4166 0.0841762 -0.233364
LeftToes  8.9788e-011 3.29689e-010 2.1201e-011
340
root  18.367 38.7809 8.31869 177.097 53.2823 171.842
RightUpLeg  -31.2949 -2.93397 -11.8063
RightLeg  46.1653 -0.690452 -1.07395
RightFoot  -6.35842 -0.396202 8.09617
RightToes  5.38503e-012 1.26228e-014 -6.01869e-014
Spine  0.028802 -1.17017 -5.82078
Spine1  6.75205 -1.14118 -1.18619
HEad  -11.0413 45.0906 -20.4538
LeftShoulder1  1.46736 -3.36771 -15.431
LeftArm  13.701 -17.6655 -47.9056
LeftForeArm  27.5588 -8.80032 -12.5805
LeftHand  -0.120361 4.18599 10.2779
RightShoulder  0.917577 -0.393869 25.2998
RightArm  -23.2954 -20.2343 41.003
RightForeArm  54.6382 -1.09698 5.99357
RightHand  0.102756 -6.09098 -19.0061
LeftUpLeg  -6.4392 3.28514 -6.99087
LeftLeg  19.6385 7.50552 1.89349
LeftFoot  -16.9071 0.0623727 -0.802827
LeftToes  8.9788e-011 3.29689e-010 2.1201e-011
341
root  19.624 38.7702 7.52031 177.695 54.0512 172.482
RightUpLeg  -31.0447 -4.17773 -11.2149
RightLeg  33.6464 -1.32239 -1.18231
RightFoot  -6.11278 -0.463147 9.21107
RightToes  5.38503e-012 1.26228e-014 -6.01869e-014
Spine  -0.761721 -1.94653 -5.59946
Spine1  6.42581 -1.94452 -0.108566
HEad  -11.8335 46.0285 -21.3674
LeftShoulder1  1.44181 -3.45738 -14.698
LeftArm  10.2733 -18.5168 -46.6702
LeftForeArm  28.1595 -7.86594 -12.5817
LeftHand  -0.116755 4.2003 10.0237
RightShoulder  0.768759 -0.873255 25.3361
RightArm  -23.6005 -22.8416 39.2624
RightForeArm  53.2647 0.767371 5.96801
RightHand  0.105337 -6.11918 -18.7398
LeftUpLeg  -3.00776 3.81975 -6.17462
LeftLeg  17.6287 7.66027 1.61874
LeftFoot  -18.0818 0.0252425 -1.41257
LeftToes  8.9788e-011 3.29689e-010 2.1201e-011
342
root  20.9226 38.7409 6.77403 178.954 54.4808 173.569
RightUpLeg  -29.513 -4.10939 -10.4342
RightLeg  18.8006 -3.56627 -1.55192
RightFoot  -4.81557 -0.609729 10.0934
RightToes  5.38503e-012 1.26228e-014 -6.01869e-014
Spine  -1.77354 -2.746 -5.30618
Spine1  6.62456 -2.89144 1.27505
HEad  -13.5591 46.7646 -22.5835
LeftShoulder1  1.36504 -3.19408 -14.3485
LeftArm  7.67383 -19.2002 -45.3971
LeftForeArm  26.9509 -7.09668 -12.5779
LeftHand  -0.136855 3.95714 10.0288
RightShoulder  0.655899 -1.27481 25.9977
RightArm  -22.7457 -25.1798 36.9412
RightForeArm  49.6558 4.05693 6.6427
RightHand  0.140975 -6.34878 -18.6173
LeftUpLeg  0.0788573 4.24999 -5.04956
LeftLeg  15.6371 7.42794 1.3892
LeftFoot  -18.9111 -0.0296334 -2.16184
LeftToes  8.9788e-011 3.29689e-010 2.1201e-011
343
root  22.3227 38.6111 6.08273 179.917 54.9509 174.406
RightUpLeg  -27.8286 -3.48748 -9.60647
RightLeg  5.76736 -4.34753 -1.46183
RightFoot  -4.30963 -0.676389 10.5017
RightToes  5.38503e-012 1.26228e-014 -6.01869e-014
Spine  -2.92943 -3.20596 -4.96353
Spine1  7.32776 -3.48249 2.15914
HEad  -15.4669 47.4484 -23.9589
LeftShoulder1  1.33212 -3.00576 -14.4633
LeftArm  6.61499 -19.7261 -43.9415
LeftForeArm  24.6181 -6.82883 -12.6158
LeftHand  -0.154536 3.69862 9.76647
RightShoulder  0.543541 -1.63601 26.1811
RightArm  -23.8587 -26.7938 36.2298
RightForeArm  47.2837 5.8482 6.33849
RightHand  0.0441582 -5.71785 -19.5383
LeftUpLeg  2.96728 4.67584 -3.88147
LeftLeg  14.5245 7.03235 1.25246
LeftFoot  -19.9912 -0.131454 -3.32242
LeftToes  8.9788e-011 3.29689e-010 2.1201e-011
344
root  23.823 38.3994 5.43307 -179.959 54.9367 174.9
RightUpLeg  -26.628 -3.60767 -8.23938
RightLeg  -0.953533 -2.76729 -1.79322
RightFoot  -6.76951 -0.40399 8.94661
RightToes  5.38503e-012 1.26228e-014 -6.01869e-014
Spine  -3.88767 -3.40622 -4.42254
Spine1  8.38439 -3.70781 2.07531
HEad  -16.9217 48.5195 -24.4864
LeftShoulder1  1.3579 -3.16642 -14.3259
LeftArm  4.65771 -20.3782 -43.3387
LeftForeArm  24.7237 -5.315 -12.8513
LeftHand  -0.157251 3.6282 9.56382
RightShoulder  0.480395 -1.80181 25.476
RightArm  -26.317 -29.5858 37.7991
RightForeArm  45.6396 8.51941 5.88311
RightHand  0.0162156 -5.54458 -19.9842
LeftUpLeg  5.84977 5.21298 -2.59942
LeftLeg  14.8612 5.76828 1.18346
LeftFoot  -20.9752 -0.337889 -5.49852
LeftToes  8.9788e-011 3.29689e-010 2.1201e-011
345
root  25.4553 38.0159 4.82811 179.538 55.0839 175.191
RightUpLeg  -26.5319 -3.21065 -7.58794
RightLeg  1.68914 -1.70306 -1.10978
RightFoot  -10.0119 -0.223289 13.3001
RightToes  5.38503e-012 1.26228e-014 -6.01869e-014
Spine  -3.8289 -3.12891 -3.449
Spine1  8.69267 -3.22544 0.827324
HEad  -18.4591 49.9825 -25.3867
LeftShoulder1  1.43469 -3.55688 -14.2449
LeftArm  3.76926 -20.2877 -43.3366
LeftForeArm  25.8502 -4.29437 -12.9915
LeftHand  -0.144883 3.74769 9.33893
RightShoulder  0.487539 -1.74849 24.8167
RightArm  -28.8424 -31.964 39.8514
RightForeArm  43.5957 10.4832 5.20242
RightHand  -0.0400131 -5.2176 -20.3533
LeftUpLeg  8.34765 6.40831 -0.798536
LeftLeg  17.5429 3.37477 0.919663
LeftFoot  -22.4059 -0.666531 -8.25666
LeftToes  8.9788e-011 3.29689e-010 2.1201e-011
346
root  26.9698 37.9786 4.29829 -179.275 54.8887 177.163
RightUpLeg  -27.0928 -1.04816 -6.28168
RightLeg  7.30007 -2.28359 -1.35216
RightFoot  -5.47996 -0.548109 9.95171
RightToes  5.38503e-012 1.26228e-014 -6.01869e-014
Spine  -3.29488 -2.83256 -1.48578
Spine1  8.99773 -3.1721 0.939891
HEad  -19.1508 51.89 -26.8707
LeftShoulder1  1.42357 -3.37469 -14.6876
LeftArm  4.5986 -18.3685 -43.3633
LeftForeArm  26.4097 -4.97162 -12.9289
LeftHand  -0.140908 3.73658 8.98107
RightShoulder  0.479359 -1.75673 24.426
RightArm  -29.988 -32.2322 40.8799
RightForeArm  43.226 10.5112 4.94498
RightHand  -0.0363981 -5.23968 -20.9899
LeftUpLeg  10.5731 6.22351 1.58373
LeftLeg  18.8786 1.85888 1.06445
LeftFoot  -21.0295 -0.930919 -12.4282
LeftToes  8.9788e-011 3.29689e-010 2.1201e-011
